<?xml version="1.0" standalone="no"?>
<svg xmlns="http://www.w3.org/2000/svg" viewBox="0 0 113.208 29" width="113.208" height="29"><g fill="#000000" color="#000000" transform="translate(0, 0) scale(0.29)"><svg width="100.0" height="100.0" x="0.0" y="0.0" viewBox="0 0 100 100"><g><path fill="currentColor" d="M51.228,22.485c0.647,0,1.171-0.524,1.171-1.172s-0.523-1.171-1.171-1.171H46.06   c-0.647,0-1.172,0.523-1.172,1.171s0.524,1.172,1.172,1.172H51.228z"></path><path fill="currentColor" d="M75.584,50.67c-1.144-1.024-2.627-1.677-4.221-2.091l-4.351-5.606V20.081c0-2.389-1.944-4.333-4.335-4.333   H34.609c-2.39,0-4.333,1.944-4.333,4.333v8.185c-0.486-0.002-0.974,0.041-1.457,0.18c-1.333,0.381-2.447,1.26-3.135,2.473   c-0.689,1.214-0.875,2.619-0.521,3.959c0.357,1.354,1.22,2.479,2.427,3.162l2.685,1.527v0.938l-0.746-0.075   c-1.302-0.298-2.645-0.085-3.801,0.613c-1.187,0.715-2.035,1.853-2.385,3.204c-0.726,2.803,0.931,5.665,3.693,6.381   c0.053,0.015,0.106,0.025,0.16,0.033l3.079,0.5v0.261l-2.142,0.329c-2.816,0.472-4.719,3.177-4.242,6.032   c0.43,2.569,2.644,4.397,5.112,4.397c0.273,0,0.55-0.022,0.829-0.068l0.443-0.065v8.266c0,2.39,1.944,4.334,4.333,4.334h0.93   c0.481,1.348,0.8,2.5,1.083,3.534c0.292,1.075,0.568,2.09,0.973,3.104c0.274,0.688,0.935,1.107,1.633,1.107   c0.217,0,0.437-0.041,0.65-0.125c0.902-0.359,1.341-1.383,0.982-2.284c-0.33-0.827-0.57-1.707-0.847-2.725   c-0.215-0.791-0.456-1.653-0.763-2.611h15.58c0.971,0,1.757-0.787,1.757-1.757c0-0.971-0.786-1.758-1.757-1.758H34.609   c-0.452,0-0.818-0.367-0.818-0.819v-50.23c0-0.45,0.367-0.817,0.818-0.817h28.068c0.452,0,0.82,0.367,0.82,0.817v27.931   c-0.671,0.039-1.273,0.092-1.799,0.145v-23.76c0-0.647-0.525-1.172-1.172-1.172H36.762c-0.647,0-1.172,0.524-1.172,1.172V63.98   c0,0.648,0.524,1.172,1.172,1.172h19.244c-0.294,0.638-0.515,1.313-0.621,2.028c-0.143,0.96,0.521,1.854,1.48,1.995   c0.966,0.159,1.855-0.52,1.997-1.48c0.249-1.679,1.879-3.346,3.189-4.685c1.092-1.116,1.955-1.999,2.198-3.034   c0.235-1.008,0.028-1.972-0.584-2.718c-1.159-1.416-3.353-1.519-4.266-1.55c-0.506-0.104-0.947-0.381-1.251-0.791   c-0.311-0.42-0.438-0.931-0.361-1.441c0.074-0.488,0.213-1.398,2.786-1.665l0.41-0.046c3.764-0.421,6.746-0.393,8.948,0.066   c0.021,0.006,0.043,0.008,0.064,0.012c1.409,0.301,2.499,0.779,3.242,1.445c0.771,0.689,1.128,1.565,1.126,2.756   c-0.016,8.318-4.256,17.672-10.549,23.275c-0.725,0.646-0.79,1.756-0.145,2.48c0.348,0.391,0.83,0.59,1.313,0.59   c0.416,0,0.833-0.146,1.169-0.445c6.996-6.229,11.708-16.635,11.727-25.894C77.885,53.881,77.092,52.02,75.584,50.67z    M29.327,34.983c-0.379-0.216-0.651-0.571-0.765-1.003c-0.118-0.446-0.055-0.916,0.179-1.327c0.232-0.408,0.603-0.702,1.045-0.829   c0.163-0.047,0.326-0.045,0.489-0.042v3.74L29.327,34.983z M27.854,47.206c-0.847-0.257-1.342-1.175-1.107-2.079   c0.118-0.454,0.4-0.836,0.794-1.073c0.383-0.231,0.828-0.3,1.249-0.187c0.087,0.021,0.176,0.038,0.266,0.047l1.22,0.123v3.562   L27.854,47.206z M29.286,58.639c-0.9,0.156-1.769-0.493-1.927-1.437c-0.158-0.943,0.451-1.834,1.333-1.981l1.584-0.244v3.516   L29.286,58.639z M54.313,52.948c-0.219,1.442,0.141,2.886,1.013,4.063c0.889,1.199,2.199,1.979,3.689,2.197   c0.099,0.015,0.209,0.024,0.306,0.017c0.438,0.001,0.964,0.056,1.317,0.154c-0.277,0.333-0.736,0.802-1.099,1.173   c-0.639,0.652-1.369,1.408-2.045,2.257H37.933V25.568h21.422v22.868C55.686,49.086,54.577,51.213,54.313,52.948z"></path><path fill="currentColor" d="M40.708,37.876h7.081v-7.081h-7.081V37.876z M42.001,32.088h4.496v4.495h-4.496V32.088z"></path><rect x="43.2" y="33.287" fill="currentColor" width="2.097" height="2.097"></rect><path fill="currentColor" d="M49.498,30.795v7.081h7.081v-7.081H49.498z M55.286,36.583h-4.495v-4.495h4.495V36.583z"></path><rect x="51.99" y="33.287" fill="currentColor" width="2.097" height="2.097"></rect><path fill="currentColor" d="M40.708,46.293h7.081v-7.081h-7.081V46.293z M42.001,40.506h4.496v4.496h-4.496V40.506z"></path><rect x="43.2" y="41.705" fill="currentColor" width="2.097" height="2.097"></rect><rect x="49.893" y="41.705" fill="currentColor" width="2.097" height="2.097"></rect><rect x="51.99" y="39.608" fill="currentColor" width="2.097" height="2.097"></rect><polygon fill="currentColor" points="54.087,43.802 51.99,43.802 51.99,45.898 56.184,45.898 56.184,41.705 54.087,41.705  "></polygon></g></svg></g><line x1="41" y1="1" x2="41" y2="28" stroke="#007ac1" stroke-linecap="round"></line><path fill="#007ac1" fill-rule="nonzero" d="M7.58 19.44L0 19.44L0 0L7.54 0L7.54 2.02L2.71 2.02L2.71 8.45L6.62 8.45L6.62 10.37L2.71 10.37L2.71 17.50L7.58 17.50L7.58 19.44ZM12.19 19.44L9.62 19.44L9.62 5.57L12.19 5.57L12.19 7.54Q12.96 6.26 13.73 5.83Q14.50 5.40 15.26 5.40L15.26 5.40Q15.36 5.40 15.44 5.40Q15.53 5.40 15.67 5.42L15.67 5.42L15.67 8.26Q15.38 8.14 15.01 8.05Q14.64 7.97 14.26 7.97L14.26 7.97Q13.66 7.97 13.16 8.24Q12.67 8.52 12.19 9.31L12.19 9.31L12.19 19.44ZM20.64 19.44L18.07 19.44L18.07 7.46L16.42 7.46L16.42 5.57L18.07 5.57L18.07 4.85Q18.07 3.55 18.28 2.63Q18.48 1.70 19.13 1.20Q19.78 0.70 21.07 0.70L21.07 0.70Q21.55 0.70 21.92 0.73Q22.30 0.77 22.75 0.86L22.75 0.86L22.75 2.74Q22.54 2.69 22.27 2.65Q22.01 2.62 21.79 2.62L21.79 2.62Q21.05 2.62 20.84 3.11Q20.64 3.60 20.64 4.42L20.64 4.42L20.64 5.57L22.75 5.57L22.75 7.46L20.64 7.46L20.64 19.44ZM26.64 19.63L26.64 19.63Q25.82 19.63 25.20 19.16Q24.58 18.70 24.22 17.96Q23.86 17.23 23.86 16.42L23.86 16.42Q23.86 15.12 24.29 14.23Q24.72 13.34 25.48 12.73Q26.23 12.12 27.23 11.66Q28.22 11.21 29.33 10.78L29.33 10.78L29.33 9.79Q29.33 8.95 29.23 8.40Q29.14 7.85 28.84 7.57Q28.54 7.30 27.94 7.30L27.94 7.30Q27.41 7.30 27.08 7.54Q26.76 7.78 26.62 8.22Q26.47 8.66 26.47 9.26L26.47 9.26L26.47 9.96L23.93 9.86Q23.98 7.56 24.98 6.47Q25.99 5.38 28.10 5.38L28.10 5.38Q30.17 5.38 31.03 6.50Q31.90 7.63 31.90 9.77L31.90 9.77L31.90 16.10Q31.90 16.75 31.93 17.35Q31.97 17.95 32.03 18.47Q32.09 18.98 32.14 19.44L32.14 19.44L29.78 19.44Q29.71 19.06 29.60 18.47Q29.50 17.88 29.45 17.40L29.45 17.40Q29.21 18.22 28.52 18.92Q27.84 19.63 26.64 19.63ZM27.65 17.42L27.65 17.42Q28.03 17.42 28.37 17.21Q28.70 16.99 28.97 16.72Q29.23 16.44 29.33 16.27L29.33 16.27L29.33 12.34Q28.73 12.67 28.20 13.01Q27.67 13.34 27.28 13.72Q26.88 14.09 26.65 14.56Q26.42 15.02 26.42 15.62L26.42 15.62Q26.42 16.46 26.74 16.94Q27.05 17.42 27.65 17.42ZM37.58 19.63L37.58 19.63Q35.88 19.63 34.85 18.56Q33.82 17.50 33.67 15.74L33.67 15.74L35.81 15.10Q36 16.42 36.46 17.08Q36.91 17.74 37.80 17.74L37.80 17.74Q38.50 17.74 38.86 17.34Q39.22 16.94 39.22 16.27L39.22 16.27Q39.22 15.67 38.95 15.19Q38.69 14.71 38.09 14.21L38.09 14.21L35.71 12.17Q34.99 11.54 34.50 10.78Q34.01 10.01 34.01 8.78L34.01 8.78Q34.01 7.68 34.45 6.92Q34.90 6.17 35.70 5.77Q36.50 5.38 37.58 5.38L37.58 5.38Q39.24 5.38 40.12 6.44Q40.99 7.51 41.11 9.02L41.11 9.02L39.38 9.67Q39.29 8.95 39.10 8.41Q38.90 7.87 38.57 7.57Q38.23 7.27 37.68 7.27L37.68 7.27Q37.06 7.27 36.68 7.69Q36.31 8.11 36.31 8.69L36.31 8.69Q36.31 9.05 36.47 9.40Q36.62 9.74 37.01 10.08L37.01 10.08L39.46 12.34Q39.96 12.79 40.40 13.32Q40.85 13.85 41.14 14.52Q41.42 15.19 41.42 16.08L41.42 16.08Q41.42 17.26 40.94 18.05Q40.46 18.84 39.60 19.24Q38.74 19.63 37.58 19.63ZM46.56 19.63L46.56 19.63Q44.86 19.63 43.82 18.56Q42.79 17.50 42.65 15.74L42.65 15.74L44.78 15.10Q44.98 16.42 45.43 17.08Q45.89 17.74 46.78 17.74L46.78 17.74Q47.47 17.74 47.83 17.34Q48.19 16.94 48.19 16.27L48.19 16.27Q48.19 15.67 47.93 15.19Q47.66 14.71 47.06 14.21L47.06 14.21L44.69 12.17Q43.97 11.54 43.48 10.78Q42.98 10.01 42.98 8.78L42.98 8.78Q42.98 7.68 43.43 6.92Q43.87 6.17 44.68 5.77Q45.48 5.38 46.56 5.38L46.56 5.38Q48.22 5.38 49.09 6.44Q49.97 7.51 50.09 9.02L50.09 9.02L48.36 9.67Q48.26 8.95 48.07 8.41Q47.88 7.87 47.54 7.57Q47.21 7.27 46.66 7.27L46.66 7.27Q46.03 7.27 45.66 7.69Q45.29 8.11 45.29 8.69L45.29 8.69Q45.29 9.05 45.44 9.40Q45.60 9.74 45.98 10.08L45.98 10.08L48.43 12.34Q48.94 12.79 49.38 13.32Q49.82 13.85 50.11 14.52Q50.40 15.19 50.40 16.08L50.40 16.08Q50.40 17.26 49.92 18.05Q49.44 18.84 48.58 19.24Q47.71 19.63 46.56 19.63ZM56.02 19.63L56.02 19.63Q54.94 19.63 54.28 19.22Q53.62 18.82 53.32 18.07Q53.02 17.33 53.02 16.32L53.02 16.32L53.02 7.27L51.55 7.27L51.55 5.57L53.02 5.57L53.02 1.51L55.58 1.51L55.58 5.57L57.82 5.57L57.82 7.27L55.58 7.27L55.58 16.15Q55.58 16.97 55.85 17.32Q56.11 17.66 56.86 17.66L56.86 17.66Q57.05 17.66 57.30 17.64Q57.55 17.62 57.79 17.59L57.79 17.59L57.79 19.49Q57.31 19.56 56.90 19.60Q56.50 19.63 56.02 19.63ZM61.34 15.29L60.43 15.29L59.62 0L62.21 0L61.34 15.29ZM62.21 19.44L59.62 19.44L59.62 16.80L62.21 16.80L62.21 19.44Z" transform="translate(51, 4.78)"></path></svg>